<?xml version="1.0" standalone="no"?><!DOCTYPE svg PUBLIC "-//W3C//DTD SVG 1.1//EN" "http://www.w3.org/Graphics/SVG/1.1/DTD/svg11.dtd"><svg t="1508145838196" class="icon" style="" viewBox="0 0 1024 1024" version="1.1" xmlns="http://www.w3.org/2000/svg" p-id="3986" xmlns:xlink="http://www.w3.org/1999/xlink" width="128" height="128"><defs><style type="text/css"></style></defs><path d="M512 992C246.4 992 32 777.6 32 512S246.4 32 512 32s480 214.4 480 480-214.4 480-480 480z m0-912C275.2 80 80 275.2 80 512S275.2 944 512 944 944 748.8 944 512 748.8 80 512 80z" fill="#1296db" p-id="3987"></path><path d="M678.4 492.8c12.8 9.6 12.8 28.8 0 38.4l-252.8 182.4c-12.8 9.6-25.6 3.2-25.6-12.8V323.2c0-16 12.8-22.4 25.6-12.8l252.8 182.4z" fill="#1296db" p-id="3988"></path></svg>